{
  "source": "C:\\Users\\Peter\\Desktop\\stuff\\MIUN\\quantitative_research\\video_compression\\videos\\BVI-HD\\BVI-HD_CDVL_videos\\ORIG\\CloudsZoom_1920x1080_60fps.mp4",
  "output": "C:\\Users\\Peter\\Desktop\\stuff\\MIUN\\quantitative_research\\video_compression\\compressed_videos\\BVI-HD\\vp9\\2\\CloudsZoom_1920x1080_60fps_vp9.webm",
  "codec": "vp9",
  "ok": "Input #0, mov,mp4,m4a,3gp,3g2,mj2, from 'C:\\Users\\Peter\\Desktop\\stuff\\MIUN\\quantitative_research\\video_compression\\videos\\BVI-HD\\BVI-HD_CDVL_videos\\ORIG\\CloudsZoom_1920x1080_60fps.mp4':\n  Metadata:\n    major_brand     : isom\n    minor_version   : 512\n    compatible_brands: isomiso2avc1mp41\n    encoder         : Lavf54.28.101\n  Duration: 00:00:05.00, start: 0.000000, bitrate: 32589 kb/s\n  Stream #0:0[0x1](und): Video: h264 (High 4:4:4 Predictive) (avc1 / 0x31637661), yuv420p(progressive), 1920x1080, 32586 kb/s, 60 fps, 60 tbr, 60 tbn (default)\n    Metadata:\n      handler_name    : VideoHandler\n      vendor_id       : [0][0][0][0]\n[out#0/webm @ 0000015cce929780] Codec AVOption b:a (set bitrate (in bits/s)) has not been used for any stream. The most likely reason is either wrong type (e.g. a video option with no video streams) or that it is a private option of some decoder which was not actually used for any stream.\nStream mapping:\n  Stream #0:0 -> #0:0 (h264 (native) -> vp9 (libvpx-vp9))\nPress [q] to stop, [?] for help\n[libvpx-vp9 @ 0000015ccede4b40] v1.15.2-100-g40561f514\nOutput #0, webm, to 'C:\\Users\\Peter\\Desktop\\stuff\\MIUN\\quantitative_research\\video_compression\\compressed_videos\\BVI-HD\\vp9\\2\\CloudsZoom_1920x1080_60fps_vp9.webm':\n  Metadata:\n    major_brand     : isom\n    minor_version   : 512\n    compatible_brands: isomiso2avc1mp41\n    encoder         : Lavf62.3.100\n  Stream #0:0(und): Video: vp9, yuv420p(tv, progressive), 1920x1080, q=2-31, 2000 kb/s, 60 fps, 1k tbn (default)\n    Metadata:\n      encoder         : Lavc62.11.100 libvpx-vp9\n      handler_name    : VideoHandler\n      vendor_id       : [0][0][0][0]\n    Side data:\n      cpb: bitrate max/min/avg: 0/0/0 buffer size: 2000000 vbv_delay: N/A\nframe=    9 fps=0.0 q=32.0 size=       1KiB time=00:00:00.15 bitrate=  33.8kbits/s speed=0.289x elapsed=0:00:00.51    \nframe=   19 fps= 18 q=16.0 size=       1KiB time=00:00:00.31 bitrate=  16.0kbits/s speed=0.304x elapsed=0:00:01.04    \nframe=   27 fps= 17 q=11.0 size=       1KiB time=00:00:00.45 bitrate=  11.3kbits/s speed=0.287x elapsed=0:00:01.56    \nframe=   36 fps= 17 q=21.0 size=       1KiB time=00:00:00.60 bitrate=   8.4kbits/s speed=0.289x elapsed=0:00:02.07    \nframe=   45 fps= 17 q=20.0 size=       1KiB time=00:00:00.75 bitrate=   6.8kbits/s speed=0.289x elapsed=0:00:02.59    \nframe=   54 fps= 17 q=22.0 size=       1KiB time=00:00:00.90 bitrate=   5.6kbits/s speed=0.288x elapsed=0:00:03.13    \nframe=   63 fps= 17 q=17.0 size=       1KiB time=00:00:01.05 bitrate=   4.8kbits/s speed=0.286x elapsed=0:00:03.67    \nframe=   73 fps= 17 q=5.0 size=       1KiB time=00:00:01.21 bitrate=   4.2kbits/s speed=0.29x elapsed=0:00:04.19    \nframe=   84 fps= 18 q=20.0 size=       1KiB time=00:00:01.40 bitrate=   3.6kbits/s speed=0.297x elapsed=0:00:04.71    \nframe=   93 fps= 18 q=19.0 size=       1KiB time=00:00:01.55 bitrate=   3.3kbits/s speed=0.295x elapsed=0:00:05.25    \nframe=  102 fps= 18 q=23.0 size=       1KiB time=00:00:01.70 bitrate=   3.0kbits/s speed=0.294x elapsed=0:00:05.77    \nframe=  113 fps= 18 q=22.0 size=       1KiB time=00:00:01.88 bitrate=   2.7kbits/s speed=0.298x elapsed=0:00:06.31    \nframe=  122 fps= 18 q=19.0 size=       1KiB time=00:00:02.03 bitrate=   2.5kbits/s speed=0.298x elapsed=0:00:06.83    \nframe=  131 fps= 18 q=21.0 size=     256KiB time=00:00:02.18 bitrate= 960.5kbits/s speed=0.297x elapsed=0:00:07.34    \nframe=  141 fps= 18 q=12.0 size=     256KiB time=00:00:02.35 bitrate= 892.4kbits/s speed=0.299x elapsed=0:00:07.85    \nframe=  151 fps= 18 q=15.0 size=     256KiB time=00:00:02.51 bitrate= 833.3kbits/s speed= 0.3x elapsed=0:00:08.38    \nframe=  160 fps= 18 q=11.0 size=     256KiB time=00:00:02.66 bitrate= 786.4kbits/s speed=0.299x elapsed=0:00:08.92    \nframe=  169 fps= 18 q=11.0 size=     256KiB time=00:00:02.81 bitrate= 744.6kbits/s speed=0.298x elapsed=0:00:09.44    \nframe=  177 fps= 18 q=20.0 size=     256KiB time=00:00:02.95 bitrate= 710.9kbits/s speed=0.296x elapsed=0:00:09.95    \nframe=  187 fps= 18 q=20.0 size=     256KiB time=00:00:03.11 bitrate= 672.9kbits/s speed=0.298x elapsed=0:00:10.46    \nframe=  197 fps= 18 q=11.0 size=     256KiB time=00:00:03.28 bitrate= 638.7kbits/s speed=0.299x elapsed=0:00:10.99    \nframe=  207 fps= 18 q=20.0 size=     256KiB time=00:00:03.45 bitrate= 607.9kbits/s speed=0.299x elapsed=0:00:11.52    \nframe=  216 fps= 18 q=22.0 size=     256KiB time=00:00:03.60 bitrate= 582.5kbits/s speed=0.299x elapsed=0:00:12.04    \nframe=  225 fps= 18 q=22.0 size=     256KiB time=00:00:03.75 bitrate= 559.2kbits/s speed=0.299x elapsed=0:00:12.54    \nframe=  235 fps= 18 q=20.0 size=     256KiB time=00:00:03.91 bitrate= 535.4kbits/s speed= 0.3x elapsed=0:00:13.07    \nframe=  245 fps= 18 q=11.0 size=     256KiB time=00:00:04.08 bitrate= 513.6kbits/s speed= 0.3x elapsed=0:00:13.59    \nframe=  256 fps= 18 q=11.0 size=     256KiB time=00:00:04.26 bitrate= 491.5kbits/s speed=0.302x elapsed=0:00:14.11    \nframe=  268 fps= 18 q=22.0 size=    1024KiB time=00:00:04.46 bitrate=1878.0kbits/s speed=0.305x elapsed=0:00:14.66    \nframe=  276 fps= 18 q=11.0 size=    1024KiB time=00:00:04.60 bitrate=1823.6kbits/s speed=0.303x elapsed=0:00:15.18    \nframe=  276 fps= 18 q=11.0 size=    1024KiB time=00:00:04.60 bitrate=1823.6kbits/s speed=0.293x elapsed=0:00:15.70    \nframe=  276 fps= 17 q=11.0 size=    1024KiB time=00:00:04.60 bitrate=1823.6kbits/s speed=0.284x elapsed=0:00:16.21    \n[out#0/webm @ 0000015cce929780] video:1361KiB audio:0KiB subtitle:0KiB other streams:0KiB global headers:0KiB muxing overhead: 0.204064%\nframe=  300 fps= 18 q=11.0 Lsize=    1363KiB time=00:00:05.00 bitrate=2233.7kbits/s speed=0.303x elapsed=0:00:16.48    \n",
  "seconds": 16.65115737915039,
  "probe_out": {}
}